<svg xmlns="http://www.w3.org/2000/svg" xmlns:xlink="http://www.w3.org/1999/xlink" version="1.1" width="1000" height="1000" viewBox="0 0 1000 1000" xml:space="preserve">
<desc>Created with Fabric.js 3.5.0</desc>
<defs>
</defs>
<rect x="0" y="0" width="100%" height="100%" fill="rgba(255,255,255,0)"/>
<g transform="matrix(6.5555 0 0 6.5555 3407.2717 500.0019)" id="419248">
<g style="" vector-effect="non-scaling-stroke">
		<g transform="matrix(1.3942 0 0 1.3942 -461.0759 -35.3334)" id="g&#x24;-0">
<polygon style="stroke: none; stroke-width: 1; stroke-dasharray: none; stroke-linecap: butt; stroke-dashoffset: 0; stroke-linejoin: miter; stroke-miterlimit: 4; is-custom-font: none; font-file-url: none; fill: rgb(0,35,255); fill-rule: nonzero; opacity: 1;" points="0.0005,-13.873 -27.0645,1.752 -27.0645,13.873 0.0005,-1.753 27.0645,13.873 27.0645,1.752 "/>
</g>
		<g transform="matrix(1.3942 0 0 1.3942 -423.996 34.847)" id="g&#x24;-0">
<polygon style="stroke: none; stroke-width: 1; stroke-dasharray: none; stroke-linecap: butt; stroke-dashoffset: 0; stroke-linejoin: miter; stroke-miterlimit: 4; is-custom-font: none; font-file-url: none; fill: rgb(0,35,255); fill-rule: nonzero; opacity: 1;" points="0.0005,13.872 -27.0645,-1.753 -27.0645,-13.872 0.0005,1.753 27.0645,-13.872 27.0645,-1.753 "/>
</g>
		<g transform="matrix(1.3942 0 0 1.3942 -472.6261 3.6644)" id="g&#x24;-0">
<polygon style="stroke: none; stroke-width: 1; stroke-dasharray: none; stroke-linecap: butt; stroke-dashoffset: 0; stroke-linejoin: miter; stroke-miterlimit: 4; is-custom-font: none; font-file-url: none; fill: rgb(0,35,255); fill-rule: nonzero; opacity: 1;" points="-18.78,-10.843 8.285,-26.469 18.78,-20.409 -8.284,-4.783 -8.284,26.469 -18.78,20.409 "/>
</g>
		<g transform="matrix(1.3942 0 0 1.3942 -430.9599 -28.5976)" id="g&#x24;-0">
<polygon style="stroke: none; stroke-width: 1; stroke-dasharray: none; stroke-linecap: butt; stroke-dashoffset: 0; stroke-linejoin: miter; stroke-miterlimit: 4; is-custom-font: none; font-file-url: none; fill: rgb(0,35,255); fill-rule: nonzero; opacity: 1;" points="18.7805,-10.8435 -8.2845,-26.4685 -18.7805,-20.4085 8.2835,-4.7835 8.2835,26.4685 18.7805,20.4085 "/>
</g>
		<g transform="matrix(1.3942 0 0 1.3942 -453.9816 27.966)" id="g&#x24;-0">
<polygon style="stroke: none; stroke-width: 1; stroke-dasharray: none; stroke-linecap: butt; stroke-dashoffset: 0; stroke-linejoin: miter; stroke-miterlimit: 4; is-custom-font: none; font-file-url: none; fill: rgb(0,35,255); fill-rule: nonzero; opacity: 1;" points="-18.7805,10.842 -18.7795,-20.409 -8.2835,-26.469 -8.2835,4.783 18.7805,20.408 8.2845,26.469 "/>
</g>
		<g transform="matrix(1.3942 0 0 1.3942 -412.4451 -4.151)" id="g&#x24;-0">
<polygon style="stroke: none; stroke-width: 1; stroke-dasharray: none; stroke-linecap: butt; stroke-dashoffset: 0; stroke-linejoin: miter; stroke-miterlimit: 4; is-custom-font: none; font-file-url: none; fill: rgb(0,35,255); fill-rule: nonzero; opacity: 1;" points="18.78,10.8425 18.78,-20.4095 8.284,-26.4695 8.284,4.7815 -18.78,20.4085 -8.284,26.4695 "/>
</g>
		<g transform="matrix(2.2072 0 0 2.2072 71.1078 -0.3151)" id="text-0">
<path style="stroke: none; stroke-width: 1; stroke-dasharray: none; stroke-linecap: butt; stroke-dashoffset: 0; stroke-linejoin: miter; stroke-miterlimit: 4; is-custom-font: none; font-file-url: none; fill: rgb(0,35,255); fill-rule: nonzero; opacity: 1;" transform=" translate(-195.58, 18.18)" d="M 37.07 -18.18 L 37.07 -18.18 Q 37.07 -12.18 34.77 -8.01 Q 32.46 -3.84 28.52 -1.67 Q 24.59 0.5 19.71 0.5 L 19.71 0.5 Q 14.81 0.5 10.88 -1.69 Q 6.96 -3.87 4.66 -8.03 Q 2.36 -12.2 2.36 -18.18 L 2.36 -18.18 Q 2.36 -24.18 4.66 -28.36 Q 6.96 -32.53 10.88 -34.69 Q 14.81 -36.86 19.71 -36.86 L 19.71 -36.86 Q 24.59 -36.86 28.52 -34.69 Q 32.46 -32.53 34.77 -28.36 Q 37.07 -24.18 37.07 -18.18 Z M 28.09 -18.18 L 28.09 -18.18 Q 28.09 -21.73 27.09 -24.18 Q 26.08 -26.63 24.21 -27.89 Q 22.34 -29.15 19.71 -29.15 L 19.71 -29.15 Q 17.1 -29.15 15.22 -27.89 Q 13.33 -26.63 12.33 -24.18 Q 11.33 -21.73 11.33 -18.18 L 11.33 -18.18 Q 11.33 -14.63 12.33 -12.18 Q 13.33 -9.73 15.22 -8.47 Q 17.1 -7.21 19.71 -7.21 L 19.71 -7.21 Q 22.34 -7.21 24.21 -8.47 Q 26.08 -9.73 27.09 -12.18 Q 28.09 -14.63 28.09 -18.18 Z M 50.97 0 L 42.19 0 L 42.19 -36.36 L 57.21 -36.36 Q 61.29 -36.36 64.26 -34.77 Q 67.24 -33.19 68.85 -30.35 Q 70.47 -27.52 70.47 -23.77 L 70.47 -23.77 Q 70.47 -20.01 68.83 -17.2 Q 67.19 -14.38 64.15 -12.84 Q 61.11 -11.29 56.94 -11.29 L 56.94 -11.29 L 47.67 -11.29 L 47.67 -18.22 L 55.31 -18.22 Q 57.3 -18.22 58.64 -18.91 Q 59.98 -19.6 60.67 -20.85 Q 61.36 -22.11 61.36 -23.77 L 61.36 -23.77 Q 61.36 -25.46 60.67 -26.7 Q 59.98 -27.93 58.63 -28.6 Q 57.28 -29.28 55.31 -29.28 L 55.31 -29.28 L 50.97 -29.28 L 50.97 0 Z M 84.64 -29.23 L 73.59 -29.23 L 73.59 -36.36 L 104.33 -36.36 L 104.33 -29.23 L 93.3 -29.23 L 93.3 0 L 84.64 0 L 84.64 -29.23 Z M 108.64 -36.36 L 117.43 -36.36 L 117.43 0 L 108.64 0 L 108.64 -36.36 Z M 151 -25.46 L 142.59 -25.46 Q 142.41 -27.41 141.01 -28.51 Q 139.62 -29.6 137.05 -29.6 L 137.05 -29.6 Q 135.34 -29.6 134.21 -29.15 Q 133.07 -28.71 132.5 -27.94 Q 131.93 -27.17 131.91 -26.17 L 131.91 -26.17 Q 131.88 -25.36 132.24 -24.73 Q 132.61 -24.11 133.31 -23.64 Q 134.01 -23.17 135 -22.82 Q 136 -22.46 137.24 -22.19 L 137.24 -22.19 L 140.37 -21.48 Q 143.07 -20.9 145.13 -19.92 Q 147.2 -18.95 148.61 -17.6 Q 150.03 -16.25 150.75 -14.49 Q 151.48 -12.73 151.5 -10.55 L 151.5 -10.55 Q 151.48 -7.1 149.76 -4.63 Q 148.04 -2.17 144.81 -0.85 Q 141.59 0.46 137.05 0.46 L 137.05 0.46 Q 132.48 0.46 129.09 -0.91 Q 125.7 -2.27 123.82 -5.06 Q 121.94 -7.85 121.88 -12.11 L 121.88 -12.11 L 130.3 -12.11 Q 130.41 -10.35 131.24 -9.18 Q 132.07 -8.01 133.54 -7.4 Q 135 -6.8 136.94 -6.8 L 136.94 -6.8 Q 138.72 -6.8 139.97 -7.28 Q 141.22 -7.76 141.89 -8.61 Q 142.57 -9.46 142.59 -10.56 L 142.59 -10.56 Q 142.57 -11.59 141.95 -12.33 Q 141.33 -13.07 140.04 -13.61 Q 138.75 -14.15 136.76 -14.61 L 136.76 -14.61 L 132.96 -15.5 Q 128.24 -16.58 125.52 -19.01 Q 122.81 -21.43 122.82 -25.57 L 122.82 -25.57 Q 122.81 -28.94 124.63 -31.48 Q 126.46 -34.02 129.7 -35.44 Q 132.93 -36.86 137.06 -36.86 L 137.06 -36.86 Q 141.29 -36.86 144.41 -35.43 Q 147.52 -34 149.24 -31.43 Q 150.97 -28.85 151 -25.46 L 151 -25.46 Z M 188.96 -23.19 L 188.96 -23.19 L 180.08 -23.19 Q 179.91 -24.56 179.36 -25.66 Q 178.8 -26.76 177.9 -27.54 Q 176.99 -28.32 175.76 -28.74 Q 174.53 -29.15 173.03 -29.15 L 173.03 -29.15 Q 170.39 -29.15 168.48 -27.86 Q 166.57 -26.56 165.55 -24.11 Q 164.53 -21.66 164.53 -18.18 L 164.53 -18.18 Q 164.53 -14.56 165.57 -12.12 Q 166.61 -9.68 168.5 -8.44 Q 170.39 -7.21 172.98 -7.21 L 172.98 -7.21 Q 174.44 -7.21 175.64 -7.58 Q 176.83 -7.95 177.75 -8.67 Q 178.66 -9.39 179.26 -10.43 Q 179.85 -11.47 180.08 -12.78 L 180.08 -12.78 L 188.96 -12.73 Q 188.73 -10.32 187.57 -7.97 Q 186.4 -5.63 184.38 -3.7 Q 182.36 -1.78 179.45 -0.64 Q 176.55 0.5 172.8 0.5 L 172.8 0.5 Q 167.87 0.5 163.97 -1.68 Q 160.07 -3.85 157.82 -8.03 Q 155.56 -12.2 155.56 -18.18 L 155.56 -18.18 Q 155.56 -24.18 157.85 -28.36 Q 160.14 -32.53 164.05 -34.69 Q 167.96 -36.86 172.8 -36.86 L 172.8 -36.86 Q 176.11 -36.86 178.91 -35.95 Q 181.72 -35.03 183.85 -33.28 Q 185.98 -31.53 187.31 -29 Q 188.64 -26.46 188.96 -23.19 Z M 202.75 0 L 193.97 0 L 193.97 -36.36 L 202.75 -36.36 L 202.75 -21.77 L 217.08 -21.77 L 217.08 -36.36 L 225.86 -36.36 L 225.86 0 L 217.08 0 L 217.08 -14.61 L 202.75 -14.61 L 202.75 0 Z M 256.71 0 L 231.36 0 L 231.36 -36.36 L 256.71 -36.36 L 256.71 -29.23 L 240.15 -29.23 L 240.15 -21.77 L 255.42 -21.77 L 255.42 -14.61 L 240.15 -14.61 L 240.15 -7.14 L 256.71 -7.14 L 256.71 0 Z M 275.65 0 L 275.65 0 L 262.21 0 L 262.21 -36.36 L 275.64 -36.36 Q 281.19 -36.36 285.22 -34.19 Q 289.24 -32.01 291.42 -27.94 Q 293.61 -23.86 293.61 -18.2 L 293.61 -18.2 Q 293.61 -12.52 291.43 -8.43 Q 289.26 -4.35 285.23 -2.18 Q 281.19 0 275.65 0 Z M 271 -28.87 L 271 -7.49 L 275.32 -7.49 Q 278.37 -7.49 280.49 -8.53 Q 282.61 -9.57 283.71 -11.92 Q 284.8 -14.28 284.8 -18.2 L 284.8 -18.2 Q 284.8 -22.12 283.7 -24.46 Q 282.6 -26.79 280.46 -27.83 Q 278.32 -28.87 275.19 -28.87 L 275.19 -28.87 L 271 -28.87 Z M 320.72 -13.67 L 320.72 -36.36 L 329.49 -36.36 L 329.49 -12.91 Q 329.49 -8.84 327.55 -5.83 Q 325.62 -2.82 322.15 -1.18 Q 318.69 0.46 314.11 0.46 L 314.11 0.46 Q 309.48 0.46 306.01 -1.18 Q 302.55 -2.82 300.63 -5.83 Q 298.72 -8.84 298.72 -12.91 L 298.72 -12.91 L 298.72 -36.36 L 307.51 -36.36 L 307.51 -13.67 Q 307.51 -11.79 308.33 -10.32 Q 309.16 -8.84 310.65 -8.01 Q 312.14 -7.17 314.11 -7.17 L 314.11 -7.17 Q 316.08 -7.17 317.56 -8.01 Q 319.05 -8.84 319.88 -10.32 Q 320.72 -11.79 320.72 -13.67 L 320.72 -13.67 Z M 358.91 0 L 334.99 0 L 334.99 -36.36 L 343.78 -36.36 L 343.78 -7.14 L 358.91 -7.14 L 358.91 0 Z M 388.8 0 L 363.45 0 L 363.45 -36.36 L 388.8 -36.36 L 388.8 -29.23 L 372.24 -29.23 L 372.24 -21.77 L 387.51 -21.77 L 387.51 -14.61 L 372.24 -14.61 L 372.24 -7.14 L 388.8 -7.14 L 388.8 0 Z" stroke-linecap="round"/>
</g>
		<g transform="matrix(2.5192 0 0 2.5192 -0.6122 -0.3152)" id="tight-bounds">
<rect style="stroke: none; stroke-width: 1; stroke-dasharray: none; stroke-linecap: butt; stroke-dashoffset: 0; stroke-linejoin: miter; stroke-miterlimit: 4; is-custom-font: none; font-file-url: none; fill: none; fill-rule: nonzero; opacity: 1;" x="-197.76" y="-25.8752" rx="0" ry="0" width="395.52" height="51.7504"/>
</g>
</g>
</g>
</svg>