<svg xmlns="http://www.w3.org/2000/svg" version="1.1" xmlns:xlink="http://www.w3.org/1999/xlink" xmlns:svgjs="http://svgjs.dev/svgjs" width="1000" height="131" viewBox="0 0 1000 131"><g transform="matrix(1,0,0,1,-0.6060606060606233,-0.3143909742358346)"><svg viewBox="0 0 396 52" data-background-color="#ffffff" preserveAspectRatio="xMidYMid meet" height="131" width="1000" xmlns="http://www.w3.org/2000/svg" xmlns:xlink="http://www.w3.org/1999/xlink"><g id="tight-bounds" transform="matrix(1,0,0,1,0.2400000000000091,0.12479641725391843)"><svg viewBox="0 0 395.52 51.750407165492184" height="51.750407165492184" width="395.52"><g><svg viewBox="0 0 461.9726708956889 60.44517045454546" height="51.750407165492184" width="395.52"><g><svg viewBox="0 0 461.9726708956889 60.44517045454546" height="60.44517045454546" width="461.9726708956889"><g id="textblocktransform"><svg viewBox="0 0 461.9726708956889 60.44517045454546" height="60.44517045454546" width="461.9726708956889" id="textblock"><g><svg viewBox="0 0 461.9726708956889 60.44517045454546" height="60.44517045454546" width="461.9726708956889"><g><svg><g></g><g></g></svg></g><g><svg><g></g><g><svg></svg></g></svg></g><g id="text-0"><svg viewBox="0 0 461.9726708956889 60.44517045454546" height="60.44517045454546" width="461.9726708956889"><g><svg xmlns="http://www.w3.org/2000/svg" xmlns:xlink="http://www.w3.org/1999/xlink" version="1.1" x="0" y="0" viewBox="9.638 3.247 80.72399999999999 93.507" enable-background="new 0 0 100 100" xml:space="preserve" height="60.44517045454546" width="52.18193225932526" class="icon-g$-0" data-fill-palette-color="accent" id="g$-0"><g fill="#0023ff" data-fill-palette-color="accent"><g fill="#0023ff" data-fill-palette-color="accent"><polygon points="36.703,11.011 9.638,26.636 9.638,38.757 36.703,23.131 63.767,38.757 63.767,26.636   " fill="#0023ff" data-fill-palette-color="accent"></polygon></g><g fill="#0023ff" data-fill-palette-color="accent"><polygon points="63.298,89.092 36.233,73.467 36.233,61.348 63.298,76.973 90.362,61.348 90.362,73.467   " fill="#0023ff" data-fill-palette-color="accent"></polygon></g><g fill="#0023ff" data-fill-palette-color="accent"><polygon points="9.638,42.012 36.703,26.386 47.198,32.446 20.134,48.072 20.134,79.324 9.638,73.264   " fill="#0023ff" data-fill-palette-color="accent"></polygon></g><g fill="#0023ff" data-fill-palette-color="accent"><polygon points="77.083,18.872 50.018,3.247 39.522,9.307 66.586,24.932 66.586,56.184 77.083,50.124   " fill="#0023ff" data-fill-palette-color="accent"></polygon></g><g fill="#0023ff" data-fill-palette-color="accent"><polygon points="23.01,81.127 23.011,49.876 33.507,43.816 33.507,75.068 60.571,90.693 50.075,96.754   " fill="#0023ff" data-fill-palette-color="accent"></polygon></g><g fill="#0023ff" data-fill-palette-color="accent"><polygon points="90.362,58.092 90.362,26.84 79.866,20.78 79.866,52.031 52.802,67.658 63.298,73.719   " fill="#0023ff" data-fill-palette-color="accent"></polygon></g></g></svg></g><g transform="matrix(1,0,0,1,66.4526708956889,11.106209228007824)"><svg width="395.52" viewBox="2.36 -36.86 386.44 37.36" height="38.232751998529814" data-palette-color="#0023ff"><path d="M37.07-18.18L37.07-18.18Q37.07-12.18 34.77-8.01 32.46-3.84 28.52-1.67 24.59 0.5 19.71 0.5L19.71 0.5Q14.81 0.5 10.88-1.69 6.96-3.87 4.66-8.03 2.36-12.2 2.36-18.18L2.36-18.18Q2.36-24.18 4.66-28.36 6.96-32.53 10.88-34.69 14.81-36.86 19.71-36.86L19.71-36.86Q24.59-36.86 28.52-34.69 32.46-32.53 34.77-28.36 37.07-24.18 37.07-18.18ZM28.09-18.18L28.09-18.18Q28.09-21.73 27.09-24.18 26.08-26.63 24.21-27.89 22.34-29.15 19.71-29.15L19.71-29.15Q17.1-29.15 15.22-27.89 13.33-26.63 12.33-24.18 11.33-21.73 11.33-18.18L11.33-18.18Q11.33-14.63 12.33-12.18 13.33-9.73 15.22-8.47 17.1-7.21 19.71-7.21L19.71-7.21Q22.34-7.21 24.21-8.47 26.08-9.73 27.09-12.18 28.09-14.63 28.09-18.18ZM50.97 0L42.19 0 42.19-36.36 57.21-36.36Q61.29-36.36 64.26-34.77 67.24-33.19 68.85-30.35 70.47-27.52 70.47-23.77L70.47-23.77Q70.47-20.01 68.83-17.2 67.19-14.38 64.15-12.84 61.11-11.29 56.94-11.29L56.94-11.29 47.67-11.29 47.67-18.22 55.31-18.22Q57.3-18.22 58.64-18.91 59.98-19.6 60.67-20.85 61.36-22.11 61.36-23.77L61.36-23.77Q61.36-25.46 60.67-26.7 59.98-27.93 58.63-28.6 57.28-29.28 55.31-29.28L55.31-29.28 50.97-29.28 50.97 0ZM84.64-29.23L73.59-29.23 73.59-36.36 104.33-36.36 104.33-29.23 93.3-29.23 93.3 0 84.64 0 84.64-29.23ZM108.64-36.36L117.43-36.36 117.43 0 108.64 0 108.64-36.36ZM151-25.46L142.59-25.46Q142.41-27.41 141.01-28.51 139.62-29.6 137.05-29.6L137.05-29.6Q135.34-29.6 134.21-29.15 133.07-28.71 132.5-27.94 131.93-27.17 131.91-26.17L131.91-26.17Q131.88-25.36 132.24-24.73 132.61-24.11 133.31-23.64 134.01-23.17 135-22.82 136-22.46 137.24-22.19L137.24-22.19 140.37-21.48Q143.07-20.9 145.13-19.92 147.2-18.95 148.61-17.6 150.03-16.25 150.75-14.49 151.48-12.73 151.5-10.55L151.5-10.55Q151.48-7.1 149.76-4.63 148.04-2.17 144.81-0.85 141.59 0.46 137.05 0.46L137.05 0.46Q132.48 0.46 129.09-0.91 125.7-2.27 123.82-5.06 121.94-7.85 121.88-12.11L121.88-12.11 130.3-12.11Q130.41-10.35 131.24-9.18 132.07-8.01 133.54-7.4 135-6.8 136.94-6.8L136.94-6.8Q138.72-6.8 139.97-7.28 141.22-7.76 141.89-8.61 142.57-9.46 142.59-10.56L142.59-10.56Q142.57-11.59 141.95-12.33 141.33-13.07 140.04-13.61 138.75-14.15 136.76-14.61L136.76-14.61 132.96-15.5Q128.24-16.58 125.52-19.01 122.81-21.43 122.82-25.57L122.82-25.57Q122.81-28.94 124.63-31.48 126.46-34.02 129.7-35.44 132.93-36.86 137.06-36.86L137.06-36.86Q141.29-36.86 144.41-35.43 147.52-34 149.24-31.43 150.97-28.85 151-25.46L151-25.46ZM188.96-23.19L188.96-23.19 180.08-23.19Q179.91-24.56 179.36-25.66 178.8-26.76 177.9-27.54 176.99-28.32 175.76-28.74 174.53-29.15 173.03-29.15L173.03-29.15Q170.39-29.15 168.48-27.86 166.57-26.56 165.55-24.11 164.53-21.66 164.53-18.18L164.53-18.18Q164.53-14.56 165.57-12.12 166.61-9.68 168.5-8.44 170.39-7.21 172.98-7.21L172.98-7.21Q174.44-7.21 175.64-7.58 176.83-7.95 177.75-8.67 178.66-9.39 179.26-10.43 179.85-11.47 180.08-12.78L180.08-12.78 188.96-12.73Q188.73-10.32 187.57-7.97 186.4-5.63 184.38-3.7 182.36-1.78 179.45-0.64 176.55 0.5 172.8 0.5L172.8 0.5Q167.87 0.5 163.97-1.68 160.07-3.85 157.82-8.03 155.56-12.2 155.56-18.18L155.56-18.18Q155.56-24.18 157.85-28.36 160.14-32.53 164.05-34.69 167.96-36.86 172.8-36.86L172.8-36.86Q176.11-36.86 178.91-35.95 181.72-35.03 183.85-33.28 185.98-31.53 187.31-29 188.64-26.46 188.96-23.19ZM202.75 0L193.97 0 193.97-36.36 202.75-36.36 202.75-21.77 217.08-21.77 217.08-36.36 225.86-36.36 225.86 0 217.08 0 217.08-14.61 202.75-14.61 202.75 0ZM256.71 0L231.36 0 231.36-36.36 256.71-36.36 256.71-29.23 240.15-29.23 240.15-21.77 255.42-21.77 255.42-14.61 240.15-14.61 240.15-7.14 256.71-7.14 256.71 0ZM275.65 0L275.65 0 262.21 0 262.21-36.36 275.64-36.36Q281.19-36.36 285.22-34.19 289.24-32.01 291.42-27.94 293.61-23.86 293.61-18.2L293.61-18.2Q293.61-12.52 291.43-8.43 289.26-4.35 285.23-2.18 281.19 0 275.65 0ZM271-28.87L271-7.49 275.32-7.49Q278.37-7.49 280.49-8.53 282.61-9.57 283.71-11.92 284.8-14.28 284.8-18.2L284.8-18.2Q284.8-22.12 283.7-24.46 282.6-26.79 280.46-27.83 278.32-28.87 275.19-28.87L275.19-28.87 271-28.87ZM320.72-13.67L320.72-36.36 329.49-36.36 329.49-12.91Q329.49-8.84 327.55-5.83 325.62-2.82 322.15-1.18 318.69 0.46 314.11 0.46L314.11 0.46Q309.48 0.46 306.01-1.18 302.55-2.82 300.63-5.83 298.72-8.84 298.72-12.91L298.72-12.91 298.72-36.36 307.51-36.36 307.51-13.67Q307.51-11.79 308.33-10.32 309.16-8.84 310.65-8.01 312.14-7.17 314.11-7.17L314.11-7.17Q316.08-7.17 317.56-8.01 319.05-8.84 319.88-10.32 320.72-11.79 320.72-13.67L320.72-13.67ZM358.91 0L334.99 0 334.99-36.36 343.78-36.36 343.78-7.14 358.91-7.14 358.91 0ZM388.8 0L363.45 0 363.45-36.36 388.8-36.36 388.8-29.23 372.24-29.23 372.24-21.77 387.51-21.77 387.51-14.61 372.24-14.61 372.24-7.14 388.8-7.14 388.8 0Z" opacity="1" transform="matrix(1,0,0,1,0,0)" fill="#0023ff" class="undefined-text-0" data-fill-palette-color="primary"></path></svg></g></svg></g></svg></g></svg></g></svg></g></svg></g><defs></defs></svg><rect width="395.52" height="51.750407165492184" fill="none" stroke="none" visibility="hidden"></rect></g></svg></g></svg>